<?xml version="1.0" encoding="UTF-8" standalone="no"?>
<svg
   xmlns:dc="http://purl.org/dc/elements/1.1/"
   xmlns:cc="http://creativecommons.org/ns#"
   xmlns:rdf="http://www.w3.org/1999/02/22-rdf-syntax-ns#"
   xmlns:svg="http://www.w3.org/2000/svg"
   xmlns="http://www.w3.org/2000/svg"
   xmlns:sodipodi="http://sodipodi.sourceforge.net/DTD/sodipodi-0.dtd"
   xmlns:inkscape="http://www.inkscape.org/namespaces/inkscape"
   width="256mm"
   height="256mm"
   viewBox="0 0 256 256"
   version="1.1"
   id="svg8"
   inkscape:version="1.0 (4035a4fb49, 2020-05-01)"
   sodipodi:docname="logo.svg">
  <defs
     id="defs2">
    <marker
       inkscape:isstock="true"
       style="overflow:visible"
       id="marker1169"
       refX="0.0"
       refY="0.0"
       orient="auto"
       inkscape:stockid="Arrow1Lstart">
      <path
         transform="scale(0.8) translate(12.5,0)"
         style="fill-rule:evenodd;stroke:#000000;stroke-width:1pt;stroke-opacity:1;fill:#000000;fill-opacity:1"
         d="M 0.0,0.0 L 5.0,-5.0 L -12.5,0.0 L 5.0,5.0 L 0.0,0.0 z "
         id="path1167" />
    </marker>
    <marker
       inkscape:isstock="true"
       style="overflow:visible"
       id="marker1153"
       refX="0.0"
       refY="0.0"
       orient="auto"
       inkscape:stockid="Arrow1Lstart">
      <path
         transform="scale(0.8) translate(12.5,0)"
         style="fill-rule:evenodd;stroke:#000000;stroke-width:1.0pt"
         d="M 0.0,0.0 L 5.0,-5.0 L -12.5,0.0 L 5.0,5.0 L 0.0,0.0 z "
         id="path1151" />
    </marker>
    <marker
       inkscape:isstock="true"
       style="overflow:visible"
       id="Arrow1Lstart"
       refX="0.0"
       refY="0.0"
       orient="auto"
       inkscape:stockid="Arrow1Lstart">
      <path
         transform="scale(0.8) translate(12.5,0)"
         style="fill-rule:evenodd;stroke:#000000;stroke-width:1.0pt"
         d="M 0.0,0.0 L 5.0,-5.0 L -12.5,0.0 L 5.0,5.0 L 0.0,0.0 z "
         id="path881" />
    </marker>
    <rect
       id="rect873"
       height="89.514408"
       width="91.372767"
       y="62.10049"
       x="84.86016" />
    <rect
       x="62.434577"
       y="64.986166"
       width="88.478739"
       height="83.496668"
       id="rect42" />
    <rect
       x="58.757534"
       y="62.632942"
       width="93.068258"
       height="67.324774"
       id="rect36" />
    <rect
       x="71.912205"
       y="62.55986"
       width="115.44999"
       height="141.24359"
       id="rect30" />
  </defs>
  <sodipodi:namedview
     id="base"
     pagecolor="#ffffff"
     bordercolor="#666666"
     borderopacity="1.0"
     inkscape:pageopacity="0.0"
     inkscape:pageshadow="2"
     inkscape:zoom="0.24748738"
     inkscape:cx="561.92087"
     inkscape:cy="456.51799"
     inkscape:document-units="px"
     inkscape:current-layer="layer1"
     inkscape:document-rotation="0"
     showgrid="false"
     inkscape:window-width="1366"
     inkscape:window-height="704"
     inkscape:window-x="0"
     inkscape:window-y="0"
     inkscape:window-maximized="1"
     inkscape:snap-object-midpoints="false"
     inkscape:snap-center="false" />
  <metadata
     id="metadata5">
    <rdf:RDF>
      <cc:Work
         rdf:about="">
        <dc:format>image/svg+xml</dc:format>
        <dc:type
           rdf:resource="http://purl.org/dc/dcmitype/StillImage" />
        <dc:title></dc:title>
      </cc:Work>
    </rdf:RDF>
  </metadata>
  <g
     inkscape:label="Layer 1"
     inkscape:groupmode="layer"
     id="layer1">
    <circle
       r="116.75397"
       cy="128"
       cx="128"
       id="path847"
       style="fill:#62a0ea;stroke-width:6.61458315;stroke:none;stroke-miterlimit:4;stroke-dasharray:none;stroke-linejoin:round;stroke-linecap:round" />
    <text
       xml:space="preserve"
       id="text28"
       style="fill:black;fill-opacity:1;line-height:1.25;stroke:none;font-family:'Noto Sans CJK JP';font-style:normal;font-weight:normal;font-size:10.58333304px;white-space:pre;shape-inside:url(#rect30);-inkscape-font-specification:'Noto Sans CJK JP';font-stretch:normal;font-variant:normal;" />
    <path
       transform="scale(0.26458333)"
       d="M 483.7793 17.503906 C 360.12511 17.50391 241.51092 66.637512 154.07422 154.07422 C 66.637512 241.51092 17.50391 360.12511 17.503906 483.7793 C 17.503906 607.43347 66.637512 726.04962 154.07422 813.48633 C 241.51092 900.92303 360.12511 950.05468 483.7793 950.05469 C 721.7743 950.05469 921.91044 770.30239 947.37695 533.67383 L 762.23242 503.02539 L 518.23633 503.02539 L 518.23633 480.67578 L 716.91016 480.67578 L 716.91016 435.97461 L 518.23633 435.97461 L 518.23633 414.24414 L 691.45508 414.24414 L 691.45508 347.8125 L 762.23242 347.8125 L 762.23242 296.90234 L 691.45508 296.90234 L 691.45508 231.09375 L 518.23633 231.09375 L 518.23633 191.97852 L 444.35547 191.97852 L 444.35547 231.09375 L 269.27539 231.09375 L 269.27539 273.93164 L 444.35547 273.93164 L 444.35547 296.90234 L 205.94922 296.90234 L 205.94922 347.8125 L 444.35547 347.8125 L 444.35547 371.40625 L 262.44531 371.40625 L 262.44531 414.24414 L 444.35547 414.24414 L 444.35547 435.97461 L 248.78711 435.97461 L 248.78711 480.67578 L 444.35547 480.67578 L 444.35547 503.02539 L 205.32812 503.02539 L 205.32812 554.55664 L 762.23242 554.55664 L 890.35547 573.24414 C 849.00567 762.215 681.30531 900.05469 483.7793 900.05469 C 373.36674 900.05468 267.50316 856.20433 189.42969 778.13086 C 111.35622 700.05739 67.503906 594.19186 67.503906 483.7793 C 67.50391 373.36674 111.35622 267.50316 189.42969 189.42969 C 267.50316 111.35622 373.36674 67.50391 483.7793 67.503906 C 579.93511 67.503905 673.11357 100.78589 747.50977 161.70508 L 779.18555 123.02148 C 695.86146 54.791698 591.47427 17.503905 483.7793 17.503906 z M 518.23633 273.93164 L 618.19336 273.93164 L 618.19336 296.90234 L 518.23633 296.90234 L 518.23633 273.93164 z M 518.23633 347.8125 L 618.19336 347.8125 L 618.19336 371.40625 L 518.23633 371.40625 L 518.23633 347.8125 z M 282.93359 573.80273 L 282.93359 775.58008 L 354.33203 775.58008 L 354.33203 756.95508 L 620.05664 756.95508 L 620.05664 774.95898 L 694.55859 774.95898 L 694.55859 573.80273 L 282.93359 573.80273 z M 354.33203 620.98828 L 620.05664 620.98828 L 620.05664 643.33789 L 354.33203 643.33789 L 354.33203 620.98828 z M 354.33203 686.17773 L 620.05664 686.17773 L 620.05664 710.39062 L 354.33203 710.39062 L 354.33203 686.17773 z "
       style="color:#000000;font-style:normal;font-variant:normal;font-weight:normal;font-stretch:normal;font-size:medium;line-height:normal;font-family:sans-serif;font-variant-ligatures:normal;font-variant-position:normal;font-variant-caps:normal;font-variant-numeric:normal;font-variant-alternates:normal;font-variant-east-asian:normal;font-feature-settings:normal;font-variation-settings:normal;text-indent:0;text-align:start;text-decoration:none;text-decoration-line:none;text-decoration-style:solid;text-decoration-color:#000000;letter-spacing:normal;word-spacing:normal;text-transform:none;writing-mode:lr-tb;direction:ltr;text-orientation:mixed;dominant-baseline:auto;baseline-shift:baseline;text-anchor:start;white-space:normal;shape-padding:0;shape-margin:0;inline-size:0;clip-rule:nonzero;display:inline;overflow:visible;visibility:visible;isolation:auto;mix-blend-mode:normal;color-interpolation:sRGB;color-interpolation-filters:linearRGB;solid-color:#000000;solid-opacity:1;vector-effect:none;fill:#000000;fill-opacity:1;fill-rule:nonzero;stroke:none;stroke-width:50;stroke-linecap:butt;stroke-linejoin:round;stroke-miterlimit:4;stroke-dasharray:none;stroke-dashoffset:0;stroke-opacity:1;color-rendering:auto;image-rendering:auto;shape-rendering:auto;text-rendering:auto;enable-background:accumulate;stop-color:#000000;stop-opacity:1;opacity:1"
       id="path1232" />
    <text
       style="font-style:normal;font-weight:normal;font-size:10.5833px;line-height:1.25;font-family:sans-serif;white-space:pre;shape-inside:url(#rect873);fill:#000000;fill-opacity:1;stroke:none;"
       id="text871"
       xml:space="preserve" />
    <g
       style="font-style:normal;font-weight:normal;font-size:164.267px;line-height:1.25;font-family:sans-serif;fill:#000000;fill-opacity:1;stroke:none;stroke-width:0.264583"
       id="text879"
       aria-label="書" />
  </g>
</svg>
